<svg
	width="57"
	height="22"
	viewBox="0 0 57 22"
	fill="none"
	xmlns="http://www.w3.org/2000/svg"
>
	<path
		d="M25.6828 3.35024C26.2238 2.88575 26.9344 2.65013 27.7929 2.65013C28.778 2.65013 29.572 2.93044 30.1547 3.48159C30.6593 3.96097 30.9971 4.56087 31.1599 5.27046H35.0343C34.8015 3.74159 34.1003 2.49033 32.9484 1.54918C31.6915 0.521358 29.9663 0 27.8225 0C25.7582 0 24.0828 0.506462 22.8447 1.50449C21.6806 2.44294 21.0818 3.67795 21.0186 5.27046H22.8541C23.8419 5.27046 24.7099 4.70848 25.2374 3.86753C25.3585 3.67524 25.5065 3.5019 25.6828 3.35024Z"
		fill="#00B700"
	/>
	<path
		d="M29.8913 21.0263C30.8791 20.9234 31.7498 20.6783 32.4846 20.2951C33.479 19.7764 34.238 19.0804 34.7413 18.2272C35.246 17.3714 35.5017 16.4235 35.5017 15.4078C35.5017 14.1227 35.2218 13.0759 34.6673 12.2959C34.1048 11.5037 33.4171 10.9025 32.6245 10.5071C31.7902 10.0927 30.6907 9.64174 29.3544 9.16778C28.7192 8.95924 28.1486 8.75476 27.6615 8.55975H21.8184C22.3741 9.34247 23.0578 9.94643 23.8477 10.3527C24.6686 10.7765 25.7398 11.2099 27.033 11.6432C28.0558 11.9872 28.8726 12.2946 29.4594 12.56C30.0797 12.8403 30.6032 13.2195 31.0137 13.6867C31.4483 14.1823 31.669 14.812 31.669 15.5581C31.669 16.3937 31.3986 17.0884 30.8643 17.626C30.8616 17.6287 30.8589 17.6314 30.8562 17.6341C30.2668 18.2218 29.89 18.9923 29.89 19.8279V21.0263H29.8913Z"
		fill="#00B700"
	/>
	<path
		d="M10.2504 21.9282H11.1412V4.72334H17.1849V0.853088H0V4.72334H6.04363V17.695C6.04363 20.0324 7.92764 21.9282 10.2504 21.9282Z"
		fill="#111228"
	/>
	<path
		d="M49.5862 22H50.477V4.79521H56.5207V0.926331H39.3345V4.79657H45.3781V17.7682C45.3794 20.1055 47.2621 22 49.5862 22Z"
		fill="#111228"
	/>
</svg>
