<svg width="312" height="233" viewBox="0 0 312 233" fill="none" xmlns="http://www.w3.org/2000/svg">
<path d="M312 204.757H0V204.913H312V204.757Z" fill="#E6E6E6"/>
<path d="M77.8876 214.219H57.2207V214.376H77.8876V214.219Z" fill="#E6E6E6"/>
<path d="M50.6811 214.219H38.7065V214.376H50.6811V214.219Z" fill="#E6E6E6"/>
<path d="M131.383 216.521H119.409V216.677H131.383V216.521Z" fill="#E6E6E6"/>
<path d="M193.821 220.01H166.87V220.167H193.821V220.01Z" fill="#E6E6E6"/>
<path d="M161.317 220.01H157.367V220.167H161.317V220.01Z" fill="#E6E6E6"/>
<path d="M282.89 216.521H224.434V216.677H282.89V216.521Z" fill="#E6E6E6"/>
<path d="M147.888 176.864H27.4001C26.4562 176.862 25.5515 176.485 24.8846 175.816C24.2178 175.146 23.8433 174.239 23.8433 173.293V3.53978C23.8515 2.59919 24.2296 1.69983 24.8956 1.03705C25.5616 0.374277 26.4615 0.00161128 27.4001 0H147.888C148.833 0 149.739 0.376235 150.408 1.04594C151.076 1.71564 151.451 2.62395 151.451 3.57105V173.293C151.451 174.24 151.076 175.148 150.408 175.818C149.739 176.488 148.833 176.864 147.888 176.864ZM27.4001 0.125081C26.4975 0.126738 25.6325 0.487229 24.995 1.12743C24.3574 1.76763 23.9993 2.63523 23.9993 3.53978V173.293C23.9993 174.197 24.3574 175.065 24.995 175.705C25.6325 176.345 26.4975 176.706 27.4001 176.708H147.888C148.791 176.706 149.657 176.346 150.296 175.706C150.934 175.066 151.294 174.198 151.295 173.293V3.53978C151.294 2.63465 150.934 1.76707 150.296 1.12705C149.657 0.487026 148.791 0.126734 147.888 0.125081H27.4001Z" fill="#E6E6E6"/>
<path d="M282.866 176.864H162.371C161.427 176.862 160.521 176.485 159.854 175.816C159.186 175.147 158.81 174.239 158.808 173.293V3.53978C158.818 2.59862 159.197 1.69927 159.864 1.03666C160.531 0.374059 161.432 0.00159371 162.371 0H282.866C283.803 0.00325491 284.701 0.376648 285.366 1.03925C286.031 1.70185 286.408 2.60027 286.416 3.53978V173.293C286.416 174.238 286.042 175.144 285.377 175.814C284.711 176.483 283.808 176.861 282.866 176.864ZM162.371 0.125081C161.468 0.126734 160.602 0.487026 159.964 1.12705C159.325 1.76707 158.966 2.63465 158.964 3.53978V173.293C158.966 174.198 159.325 175.066 159.964 175.706C160.602 176.346 161.468 176.706 162.371 176.708H282.866C283.769 176.706 284.634 176.346 285.273 175.706C285.911 175.066 286.271 174.198 286.273 173.293V3.53978C286.271 2.63465 285.911 1.76707 285.273 1.12705C284.634 0.487026 283.769 0.126734 282.866 0.125081H162.371Z" fill="#E6E6E6"/>
<path d="M166.857 151.335H153.136V205.889H166.857V151.335Z" fill="#E0E0E0"/>
<path d="M164.249 205.889H166.858V198.459H161.516L164.249 205.889Z" fill="#FAFAFA"/>
<path d="M106.729 151.335H93.0068V205.889H106.729V151.335Z" fill="#E0E0E0"/>
<path d="M166.858 151.335H104.458V201.33H166.858V151.335Z" fill="#FAFAFA"/>
<path d="M164.593 153.793V167.02H106.704V153.793H164.574M164.817 153.549H106.479V167.258H164.836V153.549H164.817Z" fill="#E0E0E0"/>
<path d="M107.06 205.889H104.458V198.459H109.793L107.06 205.889Z" fill="#FAFAFA"/>
<path d="M134.278 160.403C134.278 160.677 134.359 160.944 134.511 161.171C134.662 161.399 134.878 161.576 135.13 161.68C135.382 161.785 135.659 161.812 135.926 161.759C136.194 161.706 136.44 161.574 136.632 161.381C136.825 161.187 136.957 160.941 137.01 160.673C137.063 160.405 137.036 160.127 136.931 159.874C136.827 159.622 136.65 159.406 136.424 159.254C136.197 159.102 135.93 159.021 135.657 159.021C135.292 159.021 134.941 159.167 134.682 159.426C134.424 159.685 134.278 160.037 134.278 160.403Z" fill="#E6E6E6"/>
<path d="M164.593 169.716V182.943H106.704V169.716H164.574M164.817 169.478H106.479V183.187H164.836V169.484L164.817 169.478Z" fill="#E0E0E0"/>
<path d="M134.278 176.364C134.278 176.637 134.359 176.904 134.511 177.131C134.662 177.359 134.878 177.536 135.13 177.641C135.382 177.745 135.659 177.772 135.926 177.719C136.194 177.666 136.44 177.534 136.632 177.341C136.825 177.148 136.957 176.901 137.01 176.633C137.063 176.365 137.036 176.087 136.931 175.835C136.827 175.582 136.65 175.366 136.424 175.214C136.197 175.062 135.93 174.981 135.657 174.981C135.292 174.981 134.941 175.127 134.682 175.386C134.424 175.645 134.278 175.997 134.278 176.364Z" fill="#E6E6E6"/>
<path d="M164.593 185.644V198.878H106.704V185.644H164.574M164.817 185.401H106.479V199.116H164.836V185.401H164.817Z" fill="#E0E0E0"/>
<path d="M134.278 192.261C134.28 192.534 134.361 192.801 134.514 193.027C134.666 193.254 134.882 193.43 135.134 193.534C135.386 193.637 135.663 193.664 135.93 193.61C136.197 193.556 136.442 193.424 136.635 193.23C136.827 193.037 136.958 192.79 137.01 192.522C137.063 192.254 137.035 191.977 136.931 191.725C136.826 191.473 136.65 191.257 136.423 191.105C136.196 190.954 135.93 190.873 135.657 190.873C135.476 190.873 135.296 190.909 135.128 190.979C134.96 191.049 134.808 191.151 134.68 191.28C134.552 191.409 134.45 191.562 134.382 191.73C134.313 191.899 134.278 192.079 134.278 192.261Z" fill="#E6E6E6"/>
<path d="M98.3487 119.652H84.627V205.895H98.3487V119.652Z" fill="#E0E0E0"/>
<path d="M95.7401 205.889H98.3484V198.459H93.0132L95.7401 205.889Z" fill="#FAFAFA"/>
<path d="M47.0684 119.652H33.3467V205.895H47.0684V119.652Z" fill="#E0E0E0"/>
<path d="M98.3484 119.652H44.7905V201.336H98.3484V119.652Z" fill="#FAFAFA"/>
<path d="M96.0401 121.954V140.447H47.0998V121.954H96.0401ZM96.3272 121.672H46.8003V140.716H96.3147V121.678L96.3272 121.672Z" fill="#E0E0E0"/>
<path d="M96.0397 142.705V191.755H72.7271V142.705H96.0397ZM96.3268 142.417H72.4463V192.043H96.3268V142.417Z" fill="#E0E0E0"/>
<path d="M70.4125 142.705V191.755H47.0998V142.705H70.4125ZM70.6933 142.417H46.8003V192.043H70.6808V142.417H70.6933Z" fill="#E0E0E0"/>
<path d="M47.3988 205.889H44.7905V198.459H50.132L47.3988 205.889Z" fill="#FAFAFA"/>
<path d="M70.1875 131.209C70.1863 131.484 70.2665 131.753 70.4179 131.982C70.5694 132.211 70.7853 132.39 71.0383 132.496C71.2913 132.602 71.5701 132.631 71.8392 132.578C72.1083 132.525 72.3557 132.393 72.5501 132.2C72.7445 132.006 72.877 131.758 72.931 131.489C72.9849 131.219 72.9579 130.94 72.8532 130.686C72.7485 130.432 72.571 130.214 72.3431 130.062C72.1151 129.909 71.847 129.827 71.5728 129.827C71.2065 129.827 70.8551 129.973 70.5955 130.232C70.3358 130.491 70.1892 130.842 70.1875 131.209Z" fill="#E6E6E6"/>
<path d="M75.1294 166.063C75.1294 166.338 75.2108 166.607 75.3633 166.835C75.5158 167.064 75.7325 167.242 75.986 167.347C76.2395 167.451 76.5184 167.479 76.7872 167.424C77.0561 167.37 77.303 167.238 77.4964 167.043C77.6899 166.848 77.8214 166.6 77.8741 166.33C77.9268 166.06 77.8985 165.781 77.7927 165.528C77.6869 165.274 77.5084 165.058 77.2798 164.906C77.0511 164.754 76.7827 164.674 76.5084 164.675C76.3268 164.675 76.147 164.711 75.9793 164.781C75.8115 164.85 75.6592 164.953 75.5311 165.082C75.403 165.211 75.3015 165.364 75.2326 165.532C75.1636 165.701 75.1286 165.881 75.1294 166.063Z" fill="#E6E6E6"/>
<path d="M65.2515 166.063C65.2527 166.336 65.3346 166.603 65.4869 166.829C65.6392 167.056 65.855 167.232 66.1071 167.336C66.3592 167.439 66.6363 167.466 66.9034 167.412C67.1705 167.358 67.4156 167.226 67.6078 167.032C67.8001 166.839 67.9308 166.592 67.9835 166.324C68.0362 166.056 68.0085 165.779 67.904 165.527C67.7994 165.274 67.6227 165.059 67.396 164.907C67.1694 164.756 66.903 164.675 66.6305 164.675C66.4489 164.675 66.2691 164.711 66.1013 164.781C65.9336 164.85 65.7813 164.953 65.6532 165.082C65.525 165.211 65.4236 165.364 65.3547 165.532C65.2857 165.701 65.2507 165.881 65.2515 166.063Z" fill="#E6E6E6"/>
<path d="M63.6918 95.6057H57.9073C58.4404 98.418 58.7761 101.264 58.9119 104.124C58.9119 107.251 54.5065 119.652 60.7839 119.652C67.0614 119.652 62.6559 107.282 62.6559 104.124C62.8021 101.264 63.1482 98.4173 63.6918 95.6057Z" fill="#E0E0E0"/>
<path d="M41.6831 108.289V112.041C41.6897 114.053 42.4899 115.98 43.9091 117.403C45.3284 118.825 47.2514 119.627 49.2585 119.634H53.0025C55.0096 119.627 56.9325 118.825 58.3518 117.403C59.771 115.98 60.5712 114.053 60.5778 112.041V108.289H41.6831Z" fill="#F5F5F5"/>
<path d="M122.098 143.38C122.098 147.758 126.984 151.335 132.956 151.335H138.347C144.319 151.335 149.205 147.758 149.205 143.38H122.098Z" fill="#E0E0E0"/>
<path d="M264.956 136.963C261.687 139.64 257.169 144.537 253.038 151.429C250.28 156.019 248.62 160.81 247.89 167.177C247.89 159.984 247.934 152.261 247.959 144.968C248.789 143.092 250.686 138.765 252.046 135.35C256.582 123.949 258.286 121.141 262.361 111.309C267.808 98.1759 273.387 82.6284 271.789 83.8729C268.532 86.4058 256.052 109.827 254.704 113.179C251.03 122.125 248.759 131.587 247.971 141.229C247.971 134.349 248.021 128.095 248.046 123.242C248.133 107.413 248.402 102.304 248.533 100.728C249.038 99.927 249.631 98.9951 249.98 98.4948C252.913 94.2421 254.043 90.6273 256.801 84.2857C260.719 75.3111 264.089 59.3696 263.103 60.1702C258.997 63.5223 255.765 70.7144 251.509 79.8891C247.254 89.0638 248.47 94.3359 247.628 102.166C247.453 103.704 247.316 109.508 247.216 117.545C246.118 108.977 244.046 103.335 240.271 98.2071C235.628 91.8968 231.136 87.6378 227.841 85.4114C224.546 83.185 233.532 98.6824 237.825 105.424C241.65 111.453 245.176 116.763 247.185 121.997C247.079 132.898 247.029 146.695 247.029 159.522C246.043 153.68 244.433 147.383 242.286 142.511C239.703 136.657 235.734 127.676 232.571 124.63C231.816 123.899 235.878 141.366 238.486 146.007C241.095 150.647 243.01 155.031 244.651 157.664C245.032 158.29 246.305 160.647 247.029 162.011C247.029 177.69 247.116 191.523 247.254 196.233H247.927C247.884 195.019 247.871 187.039 247.89 176.483C249.519 170.754 253.238 164.212 256.308 158.246C259.652 151.785 268.226 134.305 264.956 136.963Z" fill="#E0E0E0"/>
<path d="M257.363 205.889H237.807L236.328 186.677H258.842L257.363 205.889Z" fill="#F0F0F0"/>
<path d="M260.295 188.916H234.867L234.144 182.43H261.025L260.295 188.916Z" fill="#F5F5F5"/>
<path d="M77.5382 12.821H42.563V51.3146H77.5382V12.821Z" fill="#E0E0E0"/>
<path d="M81.3259 12.821H45.1963V51.3146H81.3259V12.821Z" fill="#F5F5F5"/>
<path d="M78.2998 48.2811V15.854L48.223 15.854V48.2811H78.2998Z" fill="white"/>
<path d="M71.0049 40.4137V23.7092H55.511V40.4137H71.0049Z" fill="#F5F5F5"/>
<path d="M255.871 17.3052H223.379V53.0657H255.871V17.3052Z" fill="#E0E0E0"/>
<path d="M259.391 17.3052H225.832V53.0657H259.391V17.3052Z" fill="#F5F5F5"/>
<path d="M256.583 50.2446V20.1252H228.646V50.2446H256.583Z" fill="white"/>
<path d="M242.611 43.9215C247.426 43.9215 251.329 40.0099 251.329 35.1846C251.329 30.3594 247.426 26.4478 242.611 26.4478C237.797 26.4478 233.894 30.3594 233.894 35.1846C233.894 40.0099 237.797 43.9215 242.611 43.9215Z" fill="#F5F5F5"/>
<path d="M113.874 35.7734H87.9277V64.3293H113.874V35.7734Z" fill="#E0E0E0"/>
<path d="M116.682 35.7734H89.8809V64.3293H116.682V35.7734Z" fill="#F5F5F5"/>
<path d="M114.436 62.0772V38.0242H92.1276V62.0772H114.436Z" fill="white"/>
<path d="M103.284 43.9658L97.1816 54.5601H109.387L103.284 43.9658Z" fill="#F5F5F5"/>
<path d="M156 233C222.819 233 276.987 229.831 276.987 225.921C276.987 222.011 222.819 218.841 156 218.841C89.1801 218.841 35.0122 222.011 35.0122 225.921C35.0122 229.831 89.1801 233 156 233Z" fill="#F5F5F5"/>
<path d="M217.932 67.8129L211.742 65.3113C211.742 65.3113 203.574 80.2396 201.234 80.9964C198.052 82.022 191.462 84.8739 187.556 85.3742C187.025 85.9996 186.158 87.9446 186.239 88.6513C191.487 90.4087 203.019 88.0759 205.49 86.2373C211.112 82.0658 217.932 67.8129 217.932 67.8129Z" fill="#E58A7B"/>
<path d="M219.836 64.4171C220.99 68.6886 214.738 77.2816 214.738 77.2816L206.544 72.6786C206.544 72.6786 208.079 69.1451 209.951 65.5491C212.953 59.7391 218.519 59.5452 219.836 64.4171Z" fill="#293B75"/>
<path opacity="0.2" d="M219.836 64.4171C220.99 68.6886 214.738 77.2816 214.738 77.2816L206.544 72.6786C206.544 72.6786 208.079 69.1451 209.951 65.5491C212.953 59.7391 218.519 59.5452 219.836 64.4171Z" fill="black"/>
<path opacity="0.2" d="M209.795 74.5172L213.021 76.3309L213.589 66.4058C211.711 67.8504 210.388 72.2032 209.795 74.5172Z" fill="black"/>
<path d="M214.444 61.2022C214.444 61.2022 208.067 75.4239 211.786 101.903H236.914C237.314 98.0384 235.991 79.1763 240.777 60.9646C238.02 60.4246 235.231 60.0674 232.428 59.8951C228.872 59.6886 225.307 59.6886 221.751 59.8951C219.286 60.146 216.843 60.5829 214.444 61.2022Z" fill="#293B75"/>
<path opacity="0.2" d="M214.444 61.2022C214.444 61.2022 208.067 75.4239 211.786 101.903H236.914C237.314 98.0384 235.991 79.1763 240.777 60.9646C238.02 60.4246 235.231 60.0674 232.428 59.8951C228.872 59.6886 225.307 59.6886 221.751 59.8951C219.286 60.146 216.843 60.5829 214.444 61.2022Z" fill="#111228"/>
<g style="mix-blend-mode:multiply">
<path d="M208.616 226.484C208.578 227.16 218.107 227.704 229.894 227.704C241.682 227.704 251.279 227.16 251.316 226.484C251.354 225.809 241.831 225.271 230.038 225.271C218.244 225.271 208.66 225.815 208.616 226.484Z" fill="#E8ECF1"/>
</g>
<path d="M225.389 208.736L220.933 210.466L224.772 220.406L229.229 218.676L225.389 208.736Z" fill="#E58A7B"/>
<path d="M245.263 221.674H240.565L238.842 210.773H243.541L245.263 221.674Z" fill="#E58A7B"/>
<path d="M240.24 221.13H245.519C245.611 221.13 245.699 221.163 245.769 221.223C245.839 221.282 245.885 221.365 245.9 221.455L246.58 225.639C246.594 225.744 246.586 225.851 246.556 225.953C246.525 226.054 246.473 226.148 246.403 226.227C246.333 226.307 246.247 226.37 246.151 226.413C246.054 226.456 245.949 226.478 245.844 226.477C244.003 226.446 243.117 226.333 240.796 226.333C239.367 226.333 236.428 226.484 234.443 226.484C232.459 226.484 232.328 224.532 233.145 224.351C236.814 223.557 238.237 222.475 239.46 221.424C239.676 221.234 239.953 221.13 240.24 221.13Z" fill="#263238"/>
<path d="M224.64 219.517L229.632 218.053C229.721 218.028 229.816 218.034 229.902 218.071C229.987 218.107 230.057 218.172 230.1 218.253L231.972 222.006C232.016 222.101 232.038 222.205 232.037 222.309C232.037 222.414 232.013 222.517 231.969 222.612C231.924 222.707 231.86 222.791 231.779 222.858C231.699 222.925 231.605 222.973 231.504 223C229.688 223.501 228.472 223.807 226.2 224.47C224.634 224.927 223.037 225.671 221.489 226.165C220.416 226.509 217.895 226.521 216.591 226.521C214.663 226.521 214.232 224.482 215.062 224.389C217.152 224.157 217.433 224.264 218.587 223.682C220.476 222.854 222.188 221.67 223.629 220.192C223.901 219.882 224.25 219.649 224.64 219.517Z" fill="#263238"/>
<path d="M188.342 85.3491L183.175 83.179L181.047 88.9201C183.165 89.2435 185.319 89.2435 187.437 88.9201L188.342 85.3491Z" fill="#E58A7B"/>
<path d="M179.332 83.0287L179.194 86.8436L181.048 88.9075L183.175 83.1663L179.332 83.0287Z" fill="#E58A7B"/>
<path d="M226.001 209.581L221.53 211.31L223.51 216.45L227.981 214.721L226.001 209.581Z" fill="#CF6F64"/>
<path d="M243.541 210.773H238.842L239.735 216.396H244.433L243.541 210.773Z" fill="#CF6F64"/>
<path opacity="0.2" d="M210.987 94.7427C211.081 95.8747 211.187 97.0317 211.324 98.2199L230.007 92.141C232.924 91.2744 235.46 89.4368 237.195 86.9314C237.27 85.2616 237.364 83.5042 237.507 81.6718C237.57 80.7837 237.645 79.8706 237.726 78.945C237.807 78.0194 237.919 76.9938 238.038 76.0056L210.987 94.7427Z" fill="black"/>
<path d="M217.09 74.2295L216.466 74.1545C216.834 71.0275 219.161 68.5634 221.614 68.6259V69.2513C219.467 69.2075 217.421 71.4277 217.09 74.2295Z" fill="white"/>
<path d="M220.416 80.0021H220.31V79.3767C222.456 79.458 224.472 77.2128 224.802 74.4172L225.426 74.4923C225.096 77.5505 222.843 80.0021 220.416 80.0021Z" fill="white"/>
<path d="M232.078 47.8435C231.198 51.2895 230.163 57.5998 232.428 59.895C232.428 59.895 230.843 63.391 224.459 63.391C218.625 63.391 221.751 59.895 221.751 59.895C225.632 58.9819 225.701 56.1426 225.189 53.4534L232.078 47.8435Z" fill="#E58A7B"/>
<path d="M229.271 50.1326L225.196 53.4535C225.322 54.0714 225.395 54.6991 225.414 55.3297C226.606 56.5179 228.996 53.5097 229.239 51.9713C229.363 51.3656 229.374 50.7421 229.271 50.1326Z" fill="#CF6F64"/>
<path d="M218.188 47.7997C218.471 48.2923 218.853 48.7209 219.309 49.0588C219.766 49.3967 220.287 49.6366 220.84 49.7635C222.337 50.095 223.086 48.7128 222.674 47.3244C222.306 46.0736 221.077 44.3913 219.554 44.679C219.228 44.7463 218.923 44.891 218.664 45.1009C218.405 45.3108 218.2 45.5798 218.066 45.8854C217.933 46.191 217.874 46.5243 217.895 46.8574C217.916 47.1904 218.016 47.5136 218.188 47.7997Z" fill="#CF6F64"/>
<path d="M220.665 36.7737C218.331 37.8432 217.508 47.1366 220.441 48.5125C223.373 49.8884 225.083 34.7412 220.665 36.7737Z" fill="#263238"/>
<path d="M232.79 42.6592C232.228 47.3247 232.166 50.0702 229.67 52.4593C228.896 53.2521 227.919 53.8152 226.847 54.0865C225.774 54.3579 224.647 54.3268 223.591 53.9968C222.535 53.6668 221.59 53.0508 220.861 52.2166C220.133 51.3824 219.648 50.3626 219.461 49.2697C218.706 45.0795 219.748 38.1563 224.416 36.2989C225.396 35.8653 226.475 35.7026 227.539 35.8275C228.604 35.9524 229.616 36.3604 230.47 37.0092C231.324 37.6581 231.99 38.5241 232.398 39.5175C232.806 40.511 232.941 41.5957 232.79 42.6592Z" fill="#E58A7B"/>
<path d="M225.12 39.188C228.577 38.3062 231.117 37.7058 230.206 40.5889C229.002 44.4414 227.554 48.1688 229.495 48.3377C230.68 48.444 235.922 46.2175 235.254 43.9598C234.674 41.9961 237.126 41.4582 237.563 40.4638C239.179 36.8615 234.555 37.3368 235.379 35.1479C236.203 32.959 231.635 29.4317 229.139 31.1891C225.077 34.0284 218.107 33.9847 221.77 29.3129C224.397 25.9795 219.71 26.6612 219.71 26.6612C219.71 26.6612 222.543 28.3435 217.776 30.9452C212.734 33.722 217.358 41.1831 225.12 39.188Z" fill="#263238"/>
<path d="M234.624 47.7997C233.942 48.7895 232.917 49.4894 231.748 49.7635C230.206 50.095 229.614 48.7128 230.194 47.3244C230.712 46.0736 232.135 44.3913 233.607 44.679C235.08 44.9667 235.417 46.574 234.624 47.7997Z" fill="#E58A7B"/>
<path d="M211.786 101.903C211.786 101.903 207.567 139.74 207.237 154.099C206.9 169.034 221.533 215.633 221.533 215.633L229.021 212.506C229.021 212.506 220.285 169.928 221.533 155.262C222.855 139.271 228.322 101.928 228.322 101.928L211.786 101.903Z" fill="#293B75"/>
<path opacity="0.2" d="M222.269 112.291C218.906 119.283 221.171 133.111 222.993 141.304C223.685 135.519 224.509 129.24 225.289 123.43C225.214 114.499 224.522 107.601 222.269 112.291Z" fill="black"/>
<path d="M228.69 210.029C228.727 210.029 229.576 212.418 229.576 212.418L220.94 216.058L219.58 213.519L228.69 210.029Z" fill="#293B75"/>
<path d="M220.703 101.903C220.703 101.903 223.929 137.889 226.063 151.366C228.409 166.132 237.607 215.307 237.607 215.307H246.212C246.212 215.307 241.058 167.326 240.084 152.705C239.023 136.844 236.914 101.903 236.914 101.903H220.703Z" fill="#293B75"/>
<path d="M246.343 213.062C246.38 213.062 246.63 215.47 246.63 215.47H237.17L236.496 212.706L246.343 213.062Z" fill="#293B75"/>
<path opacity="0.2" d="M243.048 210.211C243.029 210.211 243.01 210.204 242.995 210.191C242.98 210.179 242.97 210.161 242.967 210.142C242.917 209.704 238.269 166.364 237.395 153.23C236.446 138.984 234.537 107.382 234.518 107.063C234.517 107.053 234.519 107.042 234.522 107.032C234.526 107.023 234.531 107.013 234.538 107.006C234.545 106.998 234.554 106.992 234.563 106.988C234.573 106.984 234.583 106.982 234.593 106.982C234.614 106.982 234.633 106.989 234.648 107.003C234.664 107.017 234.673 107.036 234.674 107.057C234.674 107.376 236.602 138.952 237.551 153.224C238.425 166.357 243.073 209.667 243.117 210.136C243.119 210.146 243.118 210.157 243.116 210.167C243.113 210.177 243.109 210.186 243.102 210.195C243.096 210.203 243.088 210.21 243.078 210.215C243.069 210.22 243.059 210.222 243.048 210.223V210.211Z" fill="black"/>
<path d="M225.65 43.9599C225.65 44.3416 225.413 44.6481 225.164 44.6481C224.915 44.6481 224.734 44.3416 224.759 43.9599C224.784 43.5783 224.996 43.2717 225.245 43.2717C225.495 43.2717 225.675 43.5845 225.65 43.9599Z" fill="#263238"/>
<path d="M221.37 43.9599C221.37 44.3416 221.127 44.6481 220.884 44.6481C220.64 44.6481 220.453 44.3416 220.472 43.9599C220.491 43.5783 220.715 43.2717 220.965 43.2717C221.214 43.2717 221.395 43.5845 221.37 43.9599Z" fill="#263238"/>
<path d="M222.718 44.1541C222.198 45.319 221.526 46.4103 220.722 47.3999C221.346 48.0253 222.513 47.7376 222.513 47.7376L222.718 44.1541Z" fill="#DF5753"/>
<path d="M222.83 49.3324C222.816 49.3324 222.802 49.3295 222.788 49.3238C222.775 49.318 222.763 49.3096 222.753 49.2991C222.743 49.2885 222.735 49.276 222.731 49.2624C222.726 49.2488 222.723 49.2343 222.724 49.2198C222.726 49.1893 222.739 49.1607 222.761 49.1397C222.783 49.1188 222.812 49.1071 222.843 49.1072C223.32 49.1105 223.792 49.0065 224.224 48.803C224.656 48.5995 225.037 48.3015 225.339 47.931C225.36 47.912 225.388 47.9016 225.417 47.9016C225.446 47.9016 225.473 47.912 225.495 47.931C225.515 47.952 225.526 47.98 225.526 48.0092C225.526 48.0383 225.515 48.0664 225.495 48.0874C225.172 48.4812 224.765 48.7974 224.303 49.0128C223.842 49.2283 223.339 49.3375 222.83 49.3324Z" fill="#263238"/>
<path d="M226.412 42.809C226.382 42.8244 226.349 42.8324 226.316 42.8324C226.282 42.8324 226.249 42.8244 226.219 42.809C225.985 42.6577 225.72 42.5636 225.443 42.5342C225.167 42.5049 224.887 42.5412 224.628 42.6401C224.602 42.6528 224.575 42.6603 224.546 42.6621C224.518 42.6639 224.49 42.6601 224.463 42.6507C224.436 42.6414 224.412 42.6268 224.391 42.6078C224.37 42.5888 224.353 42.5657 224.341 42.54C224.317 42.4843 224.317 42.4218 224.339 42.3657C224.361 42.3096 224.404 42.2644 224.459 42.2397C224.785 42.1061 225.139 42.0534 225.49 42.0861C225.841 42.1187 226.179 42.2358 226.475 42.4274C226.499 42.4437 226.519 42.4646 226.535 42.4889C226.551 42.5132 226.561 42.5404 226.567 42.5689C226.572 42.5974 226.571 42.6267 226.565 42.655C226.559 42.6834 226.547 42.7102 226.531 42.7339C226.499 42.7698 226.458 42.7959 226.412 42.809Z" fill="#263238"/>
<path d="M219.717 41.5587C219.684 41.5507 219.653 41.5333 219.63 41.5087C219.609 41.4883 219.592 41.4639 219.581 41.4371C219.57 41.4102 219.564 41.3814 219.564 41.3523C219.564 41.3231 219.57 41.2943 219.581 41.2674C219.592 41.2406 219.609 41.2162 219.63 41.1959C219.869 40.9269 220.167 40.717 220.5 40.5824C220.833 40.4478 221.193 40.3923 221.551 40.4201C221.58 40.4245 221.608 40.4348 221.632 40.4503C221.657 40.4659 221.678 40.4863 221.694 40.5103C221.711 40.5344 221.722 40.5615 221.727 40.5901C221.733 40.6187 221.732 40.6481 221.726 40.6766C221.713 40.7345 221.679 40.7855 221.631 40.8201C221.582 40.8547 221.523 40.8704 221.464 40.8643C221.181 40.8463 220.897 40.8934 220.634 41.0018C220.371 41.1102 220.137 41.2771 219.948 41.4899C219.919 41.5216 219.883 41.5448 219.842 41.5569C219.801 41.569 219.758 41.5697 219.717 41.5587Z" fill="#263238"/>
<path d="M243.192 67.1184L236.702 65.386C236.702 65.386 230.337 81.0898 228.085 82.1092C225.027 83.5102 217.283 88.3633 213.989 90.6585C213.808 91.4403 213.951 93.5103 214.363 94.0795C219.979 93.0538 230.73 88.9074 232.977 86.7998C238.1 81.9904 243.192 67.1184 243.192 67.1184Z" fill="#E58A7B"/>
<path d="M238.662 221.956C238.345 221.981 238.029 221.895 237.769 221.712C237.689 221.639 237.629 221.547 237.595 221.444C237.561 221.341 237.554 221.23 237.576 221.124C237.58 221.057 237.602 220.993 237.639 220.938C237.676 220.883 237.728 220.839 237.788 220.811C238.312 220.542 239.779 221.474 239.947 221.581C239.966 221.592 239.98 221.609 239.988 221.63C239.996 221.65 239.997 221.672 239.991 221.693C239.985 221.715 239.975 221.735 239.959 221.752C239.944 221.768 239.925 221.78 239.903 221.787C239.497 221.887 239.08 221.944 238.662 221.956ZM238.038 220.98C237.99 220.969 237.941 220.969 237.894 220.98C237.87 220.992 237.85 221.011 237.837 221.034C237.824 221.058 237.817 221.085 237.819 221.111C237.803 221.184 237.805 221.26 237.827 221.332C237.849 221.403 237.889 221.467 237.944 221.518C238.187 221.737 238.799 221.762 239.604 221.606C239.124 221.289 238.585 221.076 238.019 220.98H238.038Z" fill="#293B75"/>
<path d="M239.871 221.788C239.855 221.793 239.838 221.793 239.822 221.788C239.354 221.525 238.474 220.493 238.605 219.967C238.625 219.884 238.672 219.809 238.739 219.756C238.805 219.703 238.888 219.674 238.973 219.673C239.057 219.662 239.142 219.669 239.223 219.694C239.304 219.719 239.378 219.761 239.441 219.817C239.959 220.261 239.99 221.625 239.99 221.694C239.993 221.714 239.989 221.735 239.979 221.754C239.969 221.772 239.953 221.786 239.934 221.794C239.913 221.798 239.891 221.796 239.871 221.788ZM239.036 219.879H238.992C238.849 219.879 238.83 219.961 238.824 219.992C238.749 220.299 239.304 221.081 239.765 221.45C239.763 220.921 239.6 220.406 239.298 219.973C239.225 219.91 239.132 219.876 239.036 219.879Z" fill="#293B75"/>
<path d="M222.095 221.174C221.713 221.308 221.297 221.308 220.915 221.174C220.828 221.127 220.755 221.059 220.702 220.976C220.648 220.893 220.616 220.797 220.609 220.699C220.602 220.637 220.609 220.574 220.632 220.516C220.655 220.458 220.692 220.407 220.74 220.367C221.24 219.917 223.28 220.367 223.511 220.455C223.533 220.46 223.552 220.473 223.566 220.492C223.58 220.51 223.587 220.532 223.586 220.555C223.587 220.578 223.581 220.602 223.569 220.622C223.556 220.642 223.539 220.658 223.517 220.667C223.058 220.875 222.582 221.045 222.095 221.174ZM221.077 220.43C221.006 220.444 220.94 220.476 220.884 220.524C220.864 220.538 220.849 220.559 220.84 220.582C220.831 220.605 220.829 220.631 220.834 220.655C220.838 220.721 220.859 220.784 220.893 220.84C220.928 220.896 220.977 220.942 221.034 220.974C221.364 221.149 222.132 221.012 223.124 220.592C222.456 220.423 221.764 220.368 221.077 220.43Z" fill="#293B75"/>
<path d="M223.498 220.668H223.449C222.825 220.555 221.577 219.836 221.539 219.298C221.539 219.173 221.595 218.997 221.895 218.897C221.996 218.861 222.103 218.846 222.211 218.852C222.318 218.859 222.423 218.887 222.519 218.935C223.193 219.267 223.548 220.468 223.567 220.524C223.571 220.543 223.571 220.563 223.565 220.581C223.56 220.6 223.55 220.617 223.536 220.63C223.527 220.646 223.514 220.659 223.498 220.668ZM222.02 219.085H221.957C221.764 219.154 221.764 219.235 221.764 219.26C221.764 219.586 222.669 220.18 223.299 220.38C223.154 219.878 222.846 219.438 222.425 219.129C222.3 219.065 222.156 219.049 222.02 219.085Z" fill="#293B75"/>
<path d="M214.519 90.2898L208.011 93.2917L207.256 95.1679L209.658 96.7877C209.658 96.7877 214.151 96.2999 215.43 93.4043L214.519 90.2898Z" fill="#E58A7B"/>
<path d="M214.794 94.1864C214.648 92.9331 214.235 91.7258 213.583 90.6466L214.613 89.8711C215.387 91.1146 215.881 92.5126 216.06 93.9675L214.794 94.1864Z" fill="#263238"/>
<path d="M215.904 91.1778C216.042 91.3948 216.109 91.649 216.098 91.9058C216.086 92.1627 215.996 92.4097 215.839 92.6133C215.683 92.8169 215.467 92.9672 215.223 93.0438C214.978 93.1203 214.715 93.1193 214.471 93.0411C214.227 92.9628 214.012 92.8109 213.857 92.6062C213.702 92.4015 213.614 92.1538 213.604 91.8969C213.594 91.6399 213.664 91.3862 213.803 91.1702C213.942 90.9543 214.144 90.7865 214.382 90.6898C214.648 90.5535 214.958 90.5284 215.243 90.6197C215.528 90.7111 215.766 90.9117 215.904 91.1778Z" fill="#263238"/>
<path d="M203.611 95.7183L204.479 96.5939L210.319 94.0923L208.011 93.2917L203.611 95.7183Z" fill="#E58A7B"/>
<path opacity="0.2" d="M228.69 210.029C228.727 210.029 229.576 212.418 229.576 212.418L220.94 216.058L219.58 213.519L228.69 210.029Z" fill="black"/>
<path opacity="0.2" d="M246.343 213.062C246.38 213.062 246.63 215.47 246.63 215.47H237.17L236.496 212.706L246.343 213.062Z" fill="black"/>
<path d="M244.883 65.3175C246.599 70.8648 239.891 78.451 239.891 78.451L230.625 74.661C231.723 71.4547 232.989 68.3087 234.418 65.2362C237.264 59.0885 243.148 59.7202 244.883 65.3175Z" fill="#293B75"/>
<path opacity="0.2" d="M244.883 65.3175C246.599 70.8648 239.891 78.451 239.891 78.451L230.625 74.661C231.723 71.4547 232.989 68.3087 234.418 65.2362C237.264 59.0885 243.148 59.7202 244.883 65.3175Z" fill="black"/>
<path d="M152.805 9.73779H148.818V10.3822H152.805V9.73779Z" fill="#293B75"/>
<path d="M204.421 35.2333L203.938 45.9668L204.58 45.9958L205.063 35.2623L204.421 35.2333Z" fill="#293B75"/>
<path d="M203.181 12.627H129.549L122.697 166.301H196.329L203.181 12.627Z" fill="#293B75"/>
<path opacity="0.56" d="M200.984 14.7407H127.352L120.5 168.415H194.132L200.984 14.7407Z" fill="#FAFAFA"/>
<path opacity="0.07" d="M198.788 16.8483H125.156L118.298 170.522H191.93L198.788 16.8483Z" fill="#293B75"/>
<path d="M190.407 83.873H127.558L127.034 95.6306H189.883L190.407 83.873Z" fill="white"/>
<path d="M162.122 75.2922H127.939L127.708 80.5519H161.891L162.122 75.2922Z" fill="#293B75"/>
<path d="M188.991 115.606H126.141L125.617 127.363H188.466L188.991 115.606Z" fill="white"/>
<path opacity="0.47" d="M177.466 143.242H135.202L134.572 157.332H176.835L177.466 143.242Z" fill="#293B75"/>
<path d="M174.639 159.522H132.375C132.357 159.526 132.338 159.526 132.319 159.522C132.313 159.503 132.313 159.484 132.319 159.465L132.943 145.369C132.943 145.359 132.945 145.35 132.949 145.341C132.953 145.332 132.958 145.324 132.965 145.318C132.972 145.311 132.981 145.306 132.99 145.303C132.999 145.3 133.008 145.299 133.018 145.3H175.281C175.289 145.296 175.298 145.294 175.306 145.294C175.315 145.294 175.324 145.296 175.331 145.3C175.336 145.308 175.338 145.316 175.338 145.325C175.338 145.334 175.336 145.342 175.331 145.35L174.72 159.478C174.712 159.493 174.701 159.505 174.686 159.512C174.672 159.52 174.655 159.524 174.639 159.522ZM132.45 159.372H174.564L175.188 145.425H133.074L132.45 159.372Z" fill="white"/>
<path d="M154.74 107.025H126.522L126.292 112.291H154.503L154.74 107.025Z" fill="#293B75"/>
<path d="M176.66 45.8924C176.499 49.3142 175.285 52.6021 173.185 55.3047C171.63 57.3461 169.629 59.0033 167.336 60.1492C165.043 61.2952 162.518 61.8993 159.956 61.9152C157.885 61.931 155.833 61.5218 153.927 60.7127C152.02 59.9036 150.298 58.7119 148.868 57.2108C147.439 55.7097 146.33 53.9311 145.612 51.9846C144.894 50.038 144.581 47.9647 144.693 45.8924C144.912 41.5921 146.763 37.5383 149.865 34.56C152.968 31.5817 157.089 29.9038 161.385 29.8696C163.457 29.8502 165.511 30.2569 167.42 31.0646C169.33 31.8723 171.053 33.0637 172.485 34.5654C173.917 36.067 175.026 37.847 175.744 39.7952C176.462 41.7434 176.774 43.8185 176.66 45.8924Z" fill="white"/>
<path d="M178.164 33.2217C178.124 34.1315 177.801 35.006 177.241 35.7233C176.827 36.2655 176.294 36.7056 175.684 37.0102C175.074 37.3148 174.403 37.4757 173.722 37.4806C173.061 37.4847 172.41 37.3266 171.825 37.0203C171.24 36.7139 170.738 36.2686 170.364 35.7233C169.869 34.9863 169.624 34.1091 169.666 33.2217C169.726 32.0799 170.219 31.0043 171.043 30.214C171.867 29.4238 172.962 28.9785 174.102 28.9689C174.653 28.9639 175.198 29.0718 175.705 29.2861C176.212 29.5004 176.67 29.8165 177.051 30.215C177.431 30.6134 177.727 31.0857 177.918 31.6028C178.11 32.1199 178.193 32.6708 178.164 33.2217Z" fill="#293B75"/>
<path d="M134.328 89.7513C134.298 90.2552 134.079 90.7291 133.714 91.0772C133.349 91.4254 132.866 91.622 132.363 91.6275C132.119 91.6304 131.878 91.5833 131.654 91.489C131.43 91.3948 131.227 91.2554 131.058 91.0796C130.89 90.9037 130.759 90.6951 130.675 90.4666C130.59 90.2382 130.553 89.9947 130.565 89.7513C130.593 89.2463 130.811 88.7707 131.177 88.4219C131.542 88.0732 132.026 87.8775 132.531 87.8751C132.774 87.8731 133.015 87.9208 133.239 88.0154C133.463 88.1099 133.665 88.2493 133.833 88.425C134.001 88.6006 134.132 88.8089 134.217 89.0369C134.302 89.265 134.34 89.5081 134.328 89.7513Z" fill="#263238"/>
<path d="M142.74 89.7513C142.711 90.2558 142.492 90.7305 142.127 91.079C141.762 91.4275 141.278 91.6236 140.774 91.6275C140.532 91.6296 140.291 91.5818 140.068 91.4872C139.844 91.3926 139.642 91.2531 139.474 91.0773C139.307 90.9016 139.176 90.6933 139.092 90.4652C139.008 90.2372 138.971 89.9942 138.983 89.7513C139.01 89.2474 139.228 88.7728 139.592 88.4241C139.956 88.0755 140.439 87.8792 140.943 87.8751C141.186 87.8722 141.427 87.9194 141.652 88.0136C141.876 88.1078 142.078 88.2472 142.247 88.423C142.415 88.5989 142.546 88.8075 142.631 89.036C142.716 89.2644 142.753 89.5079 142.74 89.7513Z" fill="#263238"/>
<path d="M151.158 89.7513C151.129 90.2558 150.91 90.7305 150.545 91.079C150.18 91.4275 149.696 91.6236 149.192 91.6275C148.949 91.6295 148.709 91.5818 148.485 91.4872C148.261 91.3927 148.059 91.2533 147.89 91.0777C147.722 90.902 147.591 90.6938 147.506 90.4657C147.421 90.2376 147.383 89.9945 147.395 89.7513C147.424 89.2469 147.643 88.7722 148.008 88.4237C148.373 88.0752 148.857 87.8791 149.361 87.8751C149.604 87.8722 149.845 87.9194 150.07 88.0136C150.294 88.1078 150.496 88.2472 150.665 88.423C150.833 88.5989 150.964 88.8075 151.049 89.036C151.134 89.2644 151.171 89.5079 151.158 89.7513Z" fill="#263238"/>
<path d="M132.912 121.485C132.882 121.989 132.662 122.462 132.298 122.811C131.933 123.159 131.45 123.355 130.946 123.361C130.703 123.363 130.462 123.315 130.239 123.221C130.015 123.126 129.812 122.987 129.644 122.811C129.476 122.635 129.345 122.427 129.26 122.199C129.175 121.971 129.137 121.728 129.149 121.485C129.178 120.98 129.397 120.505 129.762 120.157C130.127 119.809 130.611 119.612 131.115 119.608C131.358 119.606 131.598 119.654 131.822 119.749C132.046 119.843 132.249 119.983 132.417 120.158C132.585 120.334 132.716 120.542 132.801 120.77C132.886 120.998 132.924 121.241 132.912 121.485Z" fill="#263238"/>
<path d="M141.323 121.485C141.295 121.988 141.077 122.462 140.713 122.81C140.349 123.159 139.867 123.355 139.364 123.361C139.121 123.364 138.88 123.317 138.655 123.222C138.431 123.128 138.228 122.989 138.06 122.813C137.892 122.637 137.761 122.429 137.676 122.2C137.591 121.972 137.554 121.728 137.567 121.485C137.595 120.98 137.814 120.506 138.18 120.157C138.545 119.809 139.028 119.612 139.533 119.608C139.775 119.606 140.016 119.654 140.239 119.749C140.463 119.843 140.665 119.983 140.833 120.159C141 120.334 141.13 120.543 141.215 120.771C141.299 120.999 141.336 121.242 141.323 121.485Z" fill="#263238"/>
<path d="M149.76 121.485C149.732 121.989 149.513 122.464 149.148 122.812C148.782 123.161 148.299 123.357 147.795 123.361C147.552 123.362 147.311 123.314 147.088 123.219C146.865 123.124 146.663 122.985 146.495 122.809C146.326 122.634 146.196 122.426 146.11 122.198C146.025 121.97 145.986 121.728 145.997 121.485C146.027 120.981 146.247 120.507 146.612 120.159C146.976 119.811 147.459 119.614 147.963 119.609C148.206 119.606 148.447 119.653 148.672 119.747C148.896 119.841 149.099 119.981 149.267 120.156C149.436 120.332 149.566 120.541 149.651 120.769C149.736 120.998 149.773 121.241 149.76 121.485Z" fill="#263238"/>
<path d="M158.159 121.485C158.129 121.989 157.91 122.462 157.545 122.811C157.18 123.159 156.697 123.355 156.193 123.361C155.951 123.362 155.71 123.314 155.487 123.219C155.263 123.124 155.062 122.984 154.893 122.809C154.725 122.634 154.595 122.426 154.509 122.198C154.424 121.97 154.385 121.728 154.396 121.485C154.426 120.981 154.646 120.507 155.011 120.159C155.375 119.811 155.858 119.614 156.362 119.608C156.605 119.606 156.846 119.654 157.07 119.749C157.293 119.843 157.496 119.983 157.664 120.158C157.832 120.334 157.963 120.542 158.048 120.77C158.133 120.998 158.171 121.241 158.159 121.485Z" fill="#263238"/>
<path d="M166.608 121.485C166.578 121.989 166.358 122.462 165.994 122.811C165.629 123.159 165.146 123.355 164.642 123.361C164.399 123.364 164.158 123.317 163.934 123.222C163.709 123.128 163.507 122.989 163.338 122.813C163.17 122.637 163.039 122.429 162.954 122.2C162.87 121.972 162.832 121.728 162.845 121.485C162.874 120.98 163.093 120.505 163.458 120.157C163.823 119.809 164.307 119.612 164.811 119.608C165.054 119.606 165.295 119.654 165.518 119.749C165.742 119.843 165.945 119.983 166.113 120.158C166.281 120.334 166.412 120.542 166.497 120.77C166.582 120.998 166.62 121.241 166.608 121.485Z" fill="#263238"/>
<path d="M165.331 45.0579C167.943 42.4981 168.081 38.395 165.64 35.8934C163.199 33.3918 159.104 33.439 156.492 35.9988C153.88 38.5587 153.741 42.6617 156.182 45.1633C158.623 47.6649 162.719 47.6177 165.331 45.0579Z" fill="#293B75"/>
<path d="M173.185 55.3042C171.63 57.3457 169.629 59.0029 167.336 60.1488C165.043 61.2947 162.518 61.8988 159.956 61.9148C157.471 61.9359 155.019 61.3439 152.817 60.1911C150.614 59.0383 148.729 57.36 147.326 55.3042C150.359 52.2773 155.157 50.301 160.474 50.301C165.79 50.301 170.42 52.2773 173.185 55.3042Z" fill="#293B75"/>
<path opacity="0.1" d="M165.331 45.0579C167.943 42.4981 168.081 38.395 165.64 35.8934C163.199 33.3918 159.104 33.439 156.492 35.9988C153.88 38.5587 153.741 42.6617 156.182 45.1633C158.623 47.6649 162.719 47.6177 165.331 45.0579Z" fill="white"/>
<path opacity="0.1" d="M173.185 55.3042C171.63 57.3457 169.629 59.0029 167.336 60.1488C165.043 61.2947 162.518 61.8988 159.956 61.9148C157.471 61.9359 155.019 61.3439 152.817 60.1911C150.614 59.0383 148.729 57.36 147.326 55.3042C150.359 52.2773 155.157 50.301 160.474 50.301C165.79 50.301 170.42 52.2773 173.185 55.3042Z" fill="white"/>
<path d="M81.3755 98.4635C80.7827 99.7643 80.1587 101.196 79.6158 102.585C79.073 103.973 78.5176 105.405 78.0371 106.831C77.0561 109.641 76.3089 112.528 75.8032 115.462L75.6659 116.381C75.6528 116.539 75.6676 116.698 75.7096 116.85C75.8569 117.369 76.0888 117.859 76.396 118.301C77.1973 119.446 78.1269 120.495 79.1666 121.428C80.2627 122.45 81.4125 123.412 82.611 124.311C83.8091 125.237 85.0696 126.138 86.3114 126.988L85.1445 129.183C82.1794 127.888 79.3649 126.271 76.7517 124.361C75.3575 123.342 74.0993 122.149 73.0077 120.809C72.3606 120.012 71.8561 119.108 71.5163 118.139C71.3188 117.533 71.2177 116.9 71.2168 116.262C71.2168 116.112 71.2168 115.893 71.2168 115.787V115.481L71.2792 114.855C71.6369 111.597 72.3205 108.383 73.3197 105.262C73.8064 103.723 74.3243 102.191 74.9171 100.696C75.5099 99.2014 76.1214 97.738 76.8765 96.2183L81.3755 98.4635Z" fill="#E58A7B"/>
<path d="M85.4316 126.601L89.8433 124.362L88.7014 129.215C88.7014 129.215 85.675 130.065 84.271 128.59L85.4316 126.601Z" fill="#E58A7B"/>
<path d="M93.8809 125.156L92.7077 129.171L88.7017 129.215L89.8436 124.362L93.8809 125.156Z" fill="#E58A7B"/>
<path d="M100.108 75.0481C100.344 75.9148 100.672 76.7535 101.087 77.5497C100.966 77.6876 100.81 77.79 100.635 77.8462C100.461 77.9023 100.274 77.9101 100.096 77.8687L100.108 75.0481Z" fill="#DF5753"/>
<path d="M99.977 75.0867C100.235 75.0867 100.445 74.7646 100.445 74.3672C100.445 73.9698 100.235 73.6477 99.977 73.6477C99.7187 73.6477 99.5093 73.9698 99.5093 74.3672C99.5093 74.7646 99.7187 75.0867 99.977 75.0867Z" fill="#263238"/>
<path d="M99.8398 73.6728L100.788 73.4038C100.788 73.4038 100.326 74.1421 99.8398 73.6728Z" fill="#263238"/>
<path d="M87.9215 79.6389C88.4893 82.547 89.0572 87.8817 87.0229 89.8267C87.0229 89.8267 87.8217 92.7786 93.2193 92.7786C99.1535 92.7786 96.0522 89.8267 96.0522 89.8267C92.8137 89.0512 92.8948 86.6434 93.4626 84.3795L87.9215 79.6389Z" fill="#E58A7B"/>
<path d="M86.3428 73.0098C86.6424 77.8692 86.6673 79.933 89.1134 82.4284C92.8013 86.1808 98.6918 84.7549 99.8462 79.9268C100.888 75.549 100.227 68.3443 95.4782 66.4118C94.4359 65.9815 93.3012 65.8247 92.1815 65.9564C91.0619 66.0881 89.9943 66.5039 89.0797 67.1645C88.1651 67.8251 87.4337 68.7085 86.9548 69.7314C86.4759 70.7542 86.2653 71.8826 86.3428 73.0098Z" fill="#E58A7B"/>
<path d="M86.8231 67.5435C84.3895 68.4316 81.1447 67.7687 82.4177 75.2923C83.7655 83.2599 81.6938 85.8803 81.6938 85.8803C81.6938 85.8803 90.9228 87.8503 100.345 85.7615C100.345 85.7615 97.4686 80.7208 98.2735 77.0059C99.3031 72.3153 98.4919 70.583 98.4919 70.583C98.4919 70.583 90.2426 66.2927 86.8231 67.5435Z" fill="#263238"/>
<path d="M97.1191 75.5426C97.1217 76.4666 97.3857 77.3709 97.8804 78.1505C98.5419 79.1637 99.3219 78.7759 99.5153 77.7003C99.69 76.7559 99.559 75.0861 98.7166 74.4357C97.8742 73.7852 97.1316 74.4231 97.1191 75.5426Z" fill="#E58A7B"/>
<path d="M84.7078 68.3629C84.0089 66.3929 87.3411 63.3597 94.3923 64.6105C101.443 65.8613 101.749 71.7463 101.749 71.7463L100.326 70.0452L100.389 71.8339L93.1443 73.2285L84.7078 68.3629Z" fill="#263238"/>
<path d="M85.307 90.1579C85.2654 89.8723 85.3367 89.5818 85.5057 89.3481C85.6747 89.1145 85.9281 88.9562 86.2118 88.9071C88.4083 88.5444 93.4003 87.8064 95.9088 88.1566C97.7808 88.4193 98.2675 89.5075 98.3486 90.4018C98.3613 90.5584 98.3404 90.7159 98.2873 90.8637C98.2342 91.0116 98.1502 91.1463 98.0408 91.2589C97.9315 91.3714 97.7993 91.4592 97.6533 91.5164C97.5073 91.5735 97.3507 91.5986 97.1942 91.5901L86.3491 91.1023C86.0934 91.0893 85.85 90.9883 85.6602 90.8162C85.4703 90.6441 85.3455 90.4116 85.307 90.1579Z" fill="#293B75"/>
<path opacity="0.6" d="M85.307 90.1579C85.2654 89.8723 85.3367 89.5818 85.5057 89.3481C85.6747 89.1145 85.9281 88.9562 86.2118 88.9071C88.4083 88.5444 93.4003 87.8064 95.9088 88.1566C97.7808 88.4193 98.2675 89.5075 98.3486 90.4018C98.3613 90.5584 98.3404 90.7159 98.2873 90.8637C98.2342 91.0116 98.1502 91.1463 98.0408 91.2589C97.9315 91.3714 97.7993 91.4592 97.6533 91.5164C97.5073 91.5735 97.3507 91.5986 97.1942 91.5901L86.3491 91.1023C86.0934 91.0893 85.85 90.9883 85.6602 90.8162C85.4703 90.6441 85.3455 90.4116 85.307 90.1579Z" fill="black"/>
<path d="M91.5781 199.416L95.6029 202.218L102.336 193.068L98.3111 190.273L91.5781 199.416Z" fill="#E58A7B"/>
<path d="M82.1934 199.235L86.4428 201.661L92.402 191.986L88.1526 189.56L82.1934 199.235Z" fill="#E58A7B"/>
<path d="M102.33 193.068L98.8602 197.784L94.8354 194.988L98.3049 190.273L102.33 193.068Z" fill="#CF6F64"/>
<path d="M88.1463 189.56L92.4019 191.992L89.3319 196.977L85.0762 194.544L88.1463 189.56Z" fill="#CF6F64"/>
<path d="M94.9729 120.703C94.9729 120.703 110.685 140.547 107.734 159.528C105.356 174.856 91.5659 195.614 91.5659 195.614L85.0825 192.387C89.6524 183.209 93.5522 173.711 96.7513 163.968C97.7378 160.943 98.0258 157.733 97.5934 154.581C97.161 151.428 96.0196 148.415 94.2553 145.769C86.2931 134.118 73.5385 141.053 82.1185 120.703H94.9729Z" fill="#293B75"/>
<path opacity="0.6" d="M94.9729 120.703C94.9729 120.703 110.685 140.547 107.734 159.528C105.356 174.856 91.5659 195.614 91.5659 195.614L85.0825 192.387C89.6524 183.209 93.5522 173.711 96.7513 163.968C97.7378 160.943 98.0258 157.733 97.5934 154.581C97.161 151.428 96.0196 148.415 94.2553 145.769C86.2931 134.118 73.5385 141.053 82.1185 120.703H94.9729Z" fill="#111228"/>
<path opacity="0.4" d="M102.679 133.449L100.395 131.172C100.395 131.353 104.819 158.727 106.061 166.42C106.794 164.173 107.355 161.873 107.74 159.54C109.2 150.228 106.148 140.716 102.679 133.449Z" fill="black"/>
<path d="M101.986 120.703C101.986 120.703 120.906 145.644 121.443 160.597C121.886 173.105 100.851 197.34 100.851 197.34L94.7354 193.375C94.7354 193.375 107.047 176.164 110.148 162.105C108.95 148.171 83.6157 120.703 83.6157 120.703H101.986Z" fill="#293B75"/>
<path opacity="0.6" d="M101.986 120.703C101.986 120.703 120.906 145.644 121.443 160.597C121.886 173.105 100.851 197.34 100.851 197.34L94.7354 193.375C94.7354 193.375 107.047 176.164 110.148 162.105C108.95 148.171 83.6157 120.703 83.6157 120.703H101.986Z" fill="#111228"/>
<path d="M78.5801 90.9398C76.5583 91.4214 74.6177 98.7886 74.6177 98.7886L82.5238 104.08C82.5238 104.08 85.157 98.2508 84.2335 95.6991C83.2788 93.0412 81.1198 90.3332 78.5801 90.9398Z" fill="#293B75"/>
<path opacity="0.2" d="M80.1277 95.6865L79.5786 102.109L82.5177 104.086C83.3292 102.255 83.93 100.337 84.3085 98.3695L80.1277 95.6865Z" fill="black"/>
<path d="M104.327 91.0839C104.327 91.0839 106.661 91.9031 101.987 120.697H82.1062C82.4431 112.566 82.4494 107.563 78.5806 90.94C81.3643 90.3651 84.1859 89.993 87.0233 89.8268C90.0292 89.6108 93.0467 89.6108 96.0526 89.8268C99.9338 90.1833 104.327 91.0839 104.327 91.0839Z" fill="#293B75"/>
<path d="M106.348 95.687C106.797 96.9378 107.272 98.2825 107.771 99.577C108.27 100.872 108.744 102.204 109.25 103.517L110.778 107.445L111.165 108.426L111.365 108.914L111.459 109.158C111.459 109.202 111.459 109.202 111.459 109.196C111.345 109.035 111.195 108.902 111.022 108.808C110.775 108.662 110.497 108.579 110.211 108.564C109.973 108.557 109.737 108.601 109.518 108.695C109.231 108.827 109.231 108.883 109.237 108.877C109.289 108.835 109.335 108.787 109.374 108.733C109.72 108.278 110.019 107.79 110.267 107.276C110.56 106.7 110.841 106.087 111.122 105.468C111.671 104.218 112.176 102.923 112.682 101.616C113.187 100.309 113.668 98.9892 114.136 97.6571L115.558 93.667L117.961 94.2924C117.486 97.1442 116.875 99.921 116.139 102.748C115.783 104.155 115.365 105.55 114.891 106.957C114.654 107.664 114.391 108.364 114.092 109.083C113.78 109.864 113.395 110.613 112.944 111.322C112.778 111.561 112.594 111.786 112.395 111.998C112.076 112.342 111.689 112.617 111.259 112.804C110.877 112.969 110.464 113.046 110.048 113.029C109.583 113.012 109.13 112.877 108.732 112.635C108.262 112.341 107.872 111.935 107.596 111.453C107.502 111.291 107.421 111.128 107.365 111.009L107.247 110.772L107.01 110.284L106.535 109.315C105.911 108.014 105.287 106.7 104.744 105.381C104.202 104.061 103.627 102.723 103.091 101.378C102.554 100.034 102.074 98.689 101.618 97.238L106.348 95.687Z" fill="#E58A7B"/>
<path d="M104.327 91.0836C106.717 91.6527 109.406 98.7323 109.406 98.7323L102.299 104.792C102.299 104.792 97.6997 97.075 98.6295 94.5296C99.5967 91.8779 101.207 90.3394 104.327 91.0836Z" fill="#293B75"/>
<path d="M116.688 91.4277L119.184 89.3389L120.918 92.0469L119.639 94.3046C119.639 94.3046 117.605 96.1808 115.808 95.2239C115.523 94.5813 115.454 93.8631 115.613 93.178C115.772 92.493 116.149 91.8785 116.688 91.4277Z" fill="#E58A7B"/>
<path d="M123.689 89.3451L123.502 90.0271L119.552 90.6902L119.165 89.3389L123.689 89.3451Z" fill="#E58A7B"/>
<path d="M101.338 197.658L94.2114 193.043L95.4906 190.817L103.497 195.751L101.338 197.658Z" fill="#293B75"/>
<path d="M89.2321 201.336C88.6068 201.26 88.0061 201.046 87.4724 200.711C87.4503 200.703 87.4313 200.689 87.4177 200.67C87.4042 200.651 87.397 200.628 87.397 200.604C87.397 200.581 87.4042 200.558 87.4177 200.539C87.4313 200.52 87.4503 200.506 87.4724 200.498C87.6658 200.435 89.3444 199.916 89.8311 200.317C89.8858 200.362 89.9274 200.422 89.9515 200.489C89.9756 200.556 89.9815 200.628 89.9684 200.698C89.9597 200.811 89.9225 200.919 89.8602 201.014C89.798 201.108 89.7128 201.184 89.6127 201.236C89.4958 201.3 89.3652 201.335 89.2321 201.336ZM87.8281 200.648C88.6081 201.049 89.2321 201.192 89.5316 201.042C89.5968 201.006 89.6517 200.954 89.691 200.89C89.7303 200.827 89.7528 200.754 89.7562 200.679C89.7562 200.579 89.7562 200.536 89.7001 200.511C89.438 200.298 88.502 200.46 87.8156 200.648H87.8281Z" fill="#263238"/>
<path d="M87.5161 200.755C87.4831 200.755 87.4517 200.741 87.4287 200.718C87.4194 200.7 87.4146 200.681 87.4146 200.661C87.4146 200.642 87.4194 200.622 87.4287 200.605C87.4287 200.549 87.8343 199.191 88.4708 198.884C88.5521 198.847 88.6404 198.828 88.7297 198.828C88.8191 198.828 88.9074 198.847 88.9887 198.884C89.0763 198.912 89.1522 198.969 89.2042 199.044C89.2562 199.12 89.2814 199.212 89.2757 199.304C89.2321 199.867 88.0901 200.642 87.566 200.774L87.5161 200.755ZM88.7266 199.047C88.6659 199.049 88.6063 199.064 88.5519 199.091C88.165 199.279 87.8468 200.011 87.6908 200.455C88.2399 200.223 88.9949 199.61 89.0199 199.266C89.0199 199.21 89.0199 199.141 88.8764 199.078C88.8297 199.053 88.779 199.036 88.7266 199.028V199.047Z" fill="#263238"/>
<path d="M98.1366 204.038C97.4315 204.038 96.4518 203.131 95.9151 202.574C95.9014 202.555 95.894 202.532 95.894 202.509C95.894 202.485 95.9014 202.462 95.9151 202.443C95.9275 202.423 95.945 202.406 95.9658 202.395C95.9867 202.384 96.0101 202.379 96.0337 202.38C96.2833 202.38 98.4486 202.706 98.7543 203.319C98.7867 203.374 98.8038 203.437 98.8038 203.5C98.8038 203.564 98.7867 203.627 98.7543 203.682C98.7085 203.777 98.6392 203.859 98.553 203.921C98.4667 203.982 98.3664 204.02 98.2614 204.032L98.1366 204.038ZM96.327 202.662C97.1132 203.425 97.8058 203.851 98.199 203.801C98.2678 203.792 98.3334 203.766 98.39 203.725C98.4465 203.685 98.4924 203.631 98.5234 203.569C98.5374 203.548 98.5448 203.523 98.5448 203.497C98.5448 203.472 98.5374 203.447 98.5234 203.425C98.3612 203.087 97.2068 202.8 96.327 202.662Z" fill="#263238"/>
<path d="M96.3956 202.631C96.2555 202.635 96.1154 202.624 95.9775 202.6C95.9583 202.597 95.9401 202.589 95.9248 202.577C95.9094 202.565 95.8975 202.549 95.8902 202.531C95.8808 202.512 95.876 202.492 95.876 202.471C95.876 202.451 95.8808 202.43 95.8902 202.412C95.9276 202.368 96.77 201.348 97.5687 201.279C97.7948 201.262 98.0188 201.334 98.1927 201.48C98.4361 201.692 98.4236 201.88 98.3612 201.999C98.2052 202.424 97.1257 202.631 96.3956 202.631ZM96.2334 202.399C96.9322 202.437 98.0492 202.205 98.1927 201.899C98.1927 201.899 98.2426 201.799 98.0804 201.661C98.0158 201.605 97.9404 201.562 97.8588 201.537C97.7773 201.511 97.6912 201.502 97.6062 201.511C97.0681 201.662 96.589 201.974 96.2334 202.406V202.399Z" fill="#263238"/>
<path d="M87.6844 200.079L82.3929 198.578C82.3017 198.55 82.2035 198.557 82.1171 198.598C82.0307 198.638 81.9623 198.709 81.9249 198.797L80.1402 202.818C80.0983 202.921 80.0787 203.032 80.0825 203.143C80.0863 203.254 80.1136 203.363 80.1626 203.463C80.2115 203.563 80.2809 203.651 80.3663 203.722C80.4518 203.793 80.5512 203.845 80.6582 203.875C82.5302 204.363 83.4287 204.5 85.7562 205.17C87.1914 205.57 89.2382 206.314 91.2162 206.877C93.1943 207.44 93.8558 205.507 93.0882 205.095C89.6188 203.256 89.3442 201.968 88.3958 200.592C88.2259 200.343 87.9741 200.161 87.6844 200.079Z" fill="#293B75"/>
<path d="M96.0586 201.842L91.5408 198.715C91.4642 198.66 91.3698 198.634 91.2755 198.643C91.1812 198.652 91.0935 198.696 91.0291 198.765L88.0339 201.993C87.9609 202.076 87.9065 202.174 87.8742 202.28C87.8419 202.386 87.8326 202.498 87.8467 202.608C87.8609 202.718 87.8983 202.824 87.9564 202.918C88.0145 203.013 88.092 203.094 88.1837 203.156C89.7749 204.225 90.5986 204.657 92.5891 206.039C93.8371 206.889 96.252 208.778 97.9368 209.954C99.6216 211.13 100.876 209.516 100.277 208.878C97.5936 206.008 97.007 204.206 96.564 202.574C96.4871 202.278 96.308 202.019 96.0586 201.842Z" fill="#293B75"/>
<path d="M92.3956 196.026L84.2524 191.967L85.0948 189.753L93.7934 194.031L92.3956 196.026Z" fill="#293B75"/>
<path d="M81.8063 119.527L81.1199 121.328C81.0512 121.466 81.2135 121.61 81.4444 121.61H102.086C102.267 121.61 102.417 121.522 102.429 121.41L102.604 119.62C102.604 119.502 102.461 119.395 102.267 119.395H82.1308C82.0701 119.39 82.009 119.398 81.9526 119.421C81.8961 119.444 81.846 119.48 81.8063 119.527Z" fill="#293B75"/>
<path opacity="0.4" d="M81.8063 119.527L81.1199 121.328C81.0512 121.466 81.2135 121.61 81.4444 121.61H102.086C102.267 121.61 102.417 121.522 102.429 121.41L102.604 119.62C102.604 119.502 102.461 119.395 102.267 119.395H82.1308C82.0701 119.39 82.009 119.398 81.9526 119.421C81.8961 119.444 81.846 119.48 81.8063 119.527Z" fill="white"/>
<path d="M85.0568 121.786H84.5142C84.4082 121.786 84.3271 121.73 84.3333 121.661L84.589 119.34C84.589 119.277 84.6888 119.221 84.7948 119.221H85.3374C85.4434 119.221 85.5245 119.277 85.5183 119.34L85.2626 121.661C85.2563 121.73 85.1628 121.786 85.0568 121.786Z" fill="#293B75"/>
<path d="M97.7864 121.786H97.25C97.144 121.786 97.0629 121.73 97.0692 121.661L97.3186 119.34C97.3186 119.277 97.4247 119.221 97.5307 119.221H98.067C98.173 119.221 98.2603 119.277 98.2479 119.34L97.9984 121.661C97.9672 121.73 97.8986 121.786 97.7864 121.786Z" fill="#293B75"/>
<g style="mix-blend-mode:multiply">
<path d="M84.5832 227.697C93.8157 227.697 101.3 227.154 101.3 226.484C101.3 225.813 93.8157 225.27 84.5832 225.27C75.3506 225.27 67.8662 225.813 67.8662 226.484C67.8662 227.154 75.3506 227.697 84.5832 227.697Z" fill="#F5F5F5"/>
</g>
<path d="M94.7665 224.77C91.8088 223.906 88.5266 222.799 86.5422 221.643C86.4861 221.605 86.4237 221.586 86.3675 221.555V208.134H92.3517C92.8059 208.107 93.2328 207.907 93.5449 207.575C93.857 207.243 94.0308 206.804 94.0308 206.348C94.0308 205.892 93.857 205.453 93.5449 205.121C93.2328 204.79 92.8059 204.59 92.3517 204.563H86.3987V143.386H82.8045V204.563H76.8577C76.6149 204.548 76.3717 204.584 76.1431 204.667C75.9145 204.75 75.7052 204.879 75.5282 205.047C75.3512 205.214 75.2101 205.416 75.1138 205.639C75.0174 205.863 74.9676 206.104 74.9676 206.348C74.9676 206.592 75.0174 206.833 75.1138 207.057C75.2101 207.281 75.3512 207.483 75.5282 207.65C75.7052 207.817 75.9145 207.946 76.1431 208.03C76.3717 208.113 76.6149 208.148 76.8577 208.134H82.8045V221.536C82.7483 221.536 82.6921 221.586 82.636 221.624C80.6205 222.799 77.3632 223.906 74.4054 224.751C74.2056 224.811 74.0341 224.942 73.9218 225.118C73.8095 225.294 73.764 225.505 73.7934 225.712C73.8228 225.919 73.9252 226.109 74.0821 226.247C74.2391 226.385 74.4401 226.462 74.6488 226.464H94.5232C94.7226 226.451 94.9114 226.369 95.058 226.233C95.2045 226.096 95.3 225.914 95.3285 225.716C95.357 225.517 95.3167 225.315 95.2144 225.143C95.1122 224.971 94.9541 224.839 94.7665 224.77Z" fill="#E0E0E0"/>
<path d="M95.684 137.157H73.4945C71.7094 137.157 70.2622 138.608 70.2622 140.397V147.007C70.2622 148.797 71.7094 150.247 73.4945 150.247H95.684C97.4691 150.247 98.9163 148.797 98.9163 147.007V140.397C98.9163 138.608 97.4691 137.157 95.684 137.157Z" fill="#293B75"/>
<path d="M73.2886 150.253V151.391C73.2886 152.329 74.3057 153.092 75.5537 153.092H93.6497C94.8977 153.092 95.9148 152.329 95.9148 151.391V150.253H73.2886Z" fill="#293B75"/>
<path opacity="0.3" d="M73.2886 150.253V151.391C73.2886 152.329 74.3057 153.092 75.5537 153.092H93.6497C94.8977 153.092 95.9148 152.329 95.9148 151.391V150.253H73.2886Z" fill="white"/>
</svg>
